<svg height="30" width="30" xmlns="http://www.w3.org/2000/svg"><path clip-rule="evenodd" d="M16 24c1 0 1-1.441 1-2 0-1 1-2 2-2s2.715 1.715 4 3c1 1 1 1 2 1h3s2-.076 2-2c0-.625-.685-1.685-3-4-2-2-3.026-.967 0-5 1.843-2.456 3.184-4.681 2.954-5.323C29.734 7.064 24.608 6.088 24 7c-2 3-2.367 3.735-3 5-1 2-1.099 3-2 3-.909 0-1-1.941-1-3 0-3.306.479-5.644-1-6h-3c-1.61 0-3 1-3 1s-1.241.968-1 1c.298.04 2-.414 2 1v2s.009 4-1 4c-1 0-3-4-5-7-.785-1.177-1-1-2-1-1.072 0-1.999.042-3 .042-1 0-1.128.637-1 .958 2 5 3.437 8.14 7.237 12.096C10.722 23.725 13.05 23.918 15 24c.5.021 0 0 1 0z" fill-rule="evenodd"/></svg>