<svg height="30" width="30" xmlns="http://www.w3.org/2000/svg"><path d="M26 0H3.5C1.582 0 .027 1.586.004 3.5L0 3.458V26.5A3.5 3.5 0 0 0 3.5 30h23c1.873-.067 3.5-1.609 3.5-3.5v-23C29.978 1.629 27.859.067 26 0zM15 9.5a5.5 5.5 0 1 1 0 11 5.5 5.5 0 0 1 0-11zM26 24a2 2 0 0 1-2 2H6a2 2 0 0 1-2-2V12.5h2.359A9.008 9.008 0 0 0 6 15c0 4.97 4.031 9 9 9a9 9 0 0 0 9-9c0-.868-.13-1.706-.359-2.5H26l-.004 11.461c0 .014.004.025.004.039zm0-18.992v3.016h-.005a.995.995 0 0 1-.979.974V9H22a.997.997 0 0 1-.995-.977H21V5.008h.002L21 5a1 1 0 0 1 1-1h3.016v.003c.545.009.984.45.984.997l-.002.008H26z"/></svg>