<svg height="30" width="30" xmlns="http://www.w3.org/2000/svg"><path d="M29.699 8.539s-.293-2.067-1.191-2.979c-1.141-1.194-2.42-1.2-3.006-1.271C21.303 3.986 15 3.986 15 3.986s-6.304 0-10.502.304c-.586.07-1.865.076-3.006 1.271C.592 6.472.3 8.539.3 8.539s-.3 2.02-.3 4.447v3.001c0 2.427.3 4.539.3 4.539s.292 2.066 1.192 2.977c1.141 1.195 2.64 1.158 3.308 1.283 2.4.23 10.2.201 10.2.201s6.303.09 10.502-.213c.586-.07 1.865-.076 3.006-1.271.898-.91 1.191-2.977 1.191-2.977S30 18.415 30 15.988v-3.001c0-2.428-.301-4.448-.301-4.448zM11 18.493v-8l8 4-8 4z"/></svg>