<svg xmlns="http://www.w3.org/2000/svg" viewBox="0 0 32.8 35.1"><path fill="none" d="M18.5 17.5L24 12l-5.5 5.5L1 0l17.5 17.5L1 35l17.5-17.5L24 23z"/><linearGradient id="a" gradientUnits="userSpaceOnUse" x1="698.048" y1="732.21" x2="674.978" y2="746.65" gradientTransform="scale(1 -1) rotate(-45 -546.883 1182.764)"><stop offset="0" stop-color="#d6ffa1"/><stop offset=".33" stop-color="#93e2a7"/><stop offset="1" stop-color="#00a3b5"/></linearGradient><path d="M24 12.1L2.7.3C2.2 0 1.6-.1 1 .1l17.5 17.5 5.5-5.5z" fill="url(#a)"/><linearGradient id="b" gradientUnits="userSpaceOnUse" x1="684.636" y1="744.539" x2="714.556" y2="736.719" gradientTransform="scale(1 -1) rotate(-45 -546.883 1182.764)"><stop offset="0" stop-color="#ff177b"/><stop offset=".67" stop-color="#ffa976"/><stop offset="1" stop-color="#ffec73"/></linearGradient><path d="M24 23.1l7.3-4c1.5-.8 1.5-2.1 0-3l-7.3-4-5.5 5.5 5.5 5.5z" fill="url(#b)"/><linearGradient id="c" gradientUnits="userSpaceOnUse" x1="701.335" y1="721.254" x2="668.895" y2="740.334" gradientTransform="scale(1 -1) rotate(-45 -546.883 1182.764)"><stop offset="0" stop-color="#63ffd4"/><stop offset=".49" stop-color="#32a0ba"/><stop offset=".83" stop-color="#1262a9"/><stop offset="1" stop-color="#064aa2"/></linearGradient><path d="M1 .1c-.7.3-1.1 1-1 1.8v31.3c-.1.8.3 1.5 1 1.9l17.5-17.5L1 .1z" fill="url(#c)"/><linearGradient id="d" gradientUnits="userSpaceOnUse" x1="713.141" y1="736.395" x2="693.161" y2="710.075" gradientTransform="scale(1 -1) rotate(-45 -546.883 1182.764)"><stop offset="0" stop-color="#ff4521"/><stop offset=".34" stop-color="#d43e65"/><stop offset=".79" stop-color="#9f36b9"/><stop offset="1" stop-color="#8a33db"/></linearGradient><path d="M1 35.1c.6.1 1.2.1 1.6-.3L24 23.1l-5.5-5.5L1 35.1z" fill="url(#d)"/></svg>