<svg xmlns="http://www.w3.org/2000/svg" xmlns:xlink="http://www.w3.org/1999/xlink" viewBox="0 0 26 26"><defs><path id="a" d="M.5.5h25v25H.5z"/></defs><clipPath id="b"><use xlink:href="#a" overflow="visible"/></clipPath><g clip-path="url(#b)"><defs><path id="c" d="M8.2.5H6.7c-.5 0-1.1 0-1.6.1-.6.2-1.1.3-1.6.6-.5.2-1 .5-1.4.9-.4.4-.7.9-.9 1.4C.9 4 .8 4.5.7 5 .6 5.6.5 6.1.5 6.7v12.8c0 .5 0 1.1.1 1.6.1.6.3 1.1.5 1.6.3.5.6.9 1 1.3s.8.7 1.3 1c.5.3 1 .4 1.6.5.5.1 1.1.1 1.6.1h12.8c.5 0 1.1 0 1.6-.1s1.1-.3 1.6-.5c.5-.3.9-.6 1.3-1s.7-.8 1-1.3c.3-.5.4-1 .5-1.6.1-.5.1-1.1.1-1.6V6.6c0-.5 0-1.1-.1-1.6-.1-.6-.3-1.1-.5-1.6-.3-.5-.6-.9-1-1.3s-.8-.7-1.3-1c-.5-.3-1-.4-1.6-.5-.5-.1-1.1-.1-1.6-.1H8.2z"/></defs><clipPath id="d"><use xlink:href="#c" overflow="visible"/></clipPath><linearGradient id="e" gradientUnits="userSpaceOnUse" x1="-1484.589" y1="1209.767" x2="-1484.563" y2="1209.767" gradientTransform="rotate(90 -132048.313 1294671.938) scale(961.0199)"><stop offset="0" stop-color="#ef4db7"/><stop offset="1" stop-color="#c643fd"/></linearGradient><path clip-path="url(#d)" fill="url(#e)" d="M.5.5h25v25H.5z"/><defs><path id="f" d="M.5.5h25v25H.5z"/></defs><clipPath id="g"><use xlink:href="#f" overflow="visible"/></clipPath><g clip-path="url(#g)"><defs><path id="h" d="M12.8 3.7l-.1.1c-.1.1-.1.2-.1.3-.1.3-.2.5-.3.8L10.6 10h4.8l-1.7-5.1c-.1-.3-.2-.5-.3-.8 0-.1-.1-.2-.1-.3 0-.1-.1-.1-.1-.1H13c-.1-.1-.1-.1-.2 0"/></defs><clipPath id="i"><use xlink:href="#h" overflow="visible"/></clipPath><radialGradient id="j" cx="-1484.876" cy="1213.061" r=".026" gradientTransform="matrix(713.1472 0 0 713.147 1058936.125 -865073.125)" gradientUnits="userSpaceOnUse"><stop offset="0" stop-color="#fbe3f8"/><stop offset=".745" stop-color="#fbe3f8"/><stop offset=".808" stop-color="#fadef6"/><stop offset=".88" stop-color="#f9d1f0"/><stop offset=".955" stop-color="#f6bae7"/><stop offset=".98" stop-color="#f5b1e3"/><stop offset="1" stop-color="#f5b1e3"/></radialGradient><path clip-path="url(#i)" fill="url(#j)" d="M10.6 3.6h4.8V10h-4.8z"/><defs><path id="k" d="M.5.5h25v25H.5z"/></defs><clipPath id="l"><use xlink:href="#k" overflow="visible"/></clipPath><g clip-path="url(#l)"><defs><path id="m" d="M13 17.4l4.4 3.2c.2.2.5.3.7.5.1.1.2.1.3.1h.2c.1 0 .1 0 .1-.1l.1-.1v-.5c-.1-.3-.2-.6-.2-.8l-1.7-5.1-3.9 2.8z"/></defs><clipPath id="n"><use xlink:href="#m" overflow="visible"/></clipPath><radialGradient id="o" cx="-1484.876" cy="1213.061" r=".026" gradientTransform="matrix(713.1472 0 0 713.147 1058936.125 -865073.125)" gradientUnits="userSpaceOnUse"><stop offset="0" stop-color="#f9e3fb"/><stop offset=".746" stop-color="#f9e3fb"/><stop offset=".81" stop-color="#f8defb"/><stop offset=".883" stop-color="#f3d0fa"/><stop offset=".96" stop-color="#ecbaf9"/><stop offset=".981" stop-color="#eab2f9"/><stop offset="1" stop-color="#eab2f9"/></radialGradient><path clip-path="url(#n)" fill="url(#o)" d="M13 14.6h5.8v6.7H13z"/><defs><path id="p" d="M.5.5h25v25H.5z"/></defs><clipPath id="q"><use xlink:href="#p" overflow="visible"/></clipPath><g clip-path="url(#q)"><defs><path id="r" d="M5.2 10H4c-.1 0-.1.1-.2.1l-.1.1v.2c0 .1 0 .1.1.2l.2.2c.2.2.5.4.7.5l4.4 3.2 1.5-4.6c0 .1-5.4.1-5.4.1z"/></defs><clipPath id="s"><use xlink:href="#r" overflow="visible"/></clipPath><radialGradient id="t" cx="-1485.063" cy="1213.112" r=".026" gradientTransform="matrix(972.6158 0 0 972.6157 1444387.25 -1179891.5)" gradientUnits="userSpaceOnUse"><stop offset="0" stop-color="#fae1f8"/><stop offset=".6" stop-color="#fae1f8"/><stop offset=".85" stop-color="#f7d6f7"/><stop offset="1" stop-color="#f7d6f7"/></radialGradient><path clip-path="url(#s)" fill="url(#t)" d="M3.7 10h6.9v4.6H3.7z"/><defs><path id="u" d="M.5.5h25v25H.5z"/></defs><clipPath id="v"><use xlink:href="#u" overflow="visible"/></clipPath><g clip-path="url(#v)"><defs><path id="w" d="M7.4 19.8c-.1.3-.2.5-.2.8v.5c0 .1.1.1.1.1s.1 0 .1.1h.2c.1 0 .2-.1.3-.1.2-.2.5-.3.7-.5l4.4-3.2-2.5-1.8-1.4-1-1.7 5.1z"/></defs><clipPath id="x"><use xlink:href="#w" overflow="visible"/></clipPath><radialGradient id="y" cx="-1485.843" cy="1212.611" r=".026" gradientTransform="matrix(692.4182 0 0 692.4181 1028844.938 -839607)" gradientUnits="userSpaceOnUse"><stop offset="0" stop-color="#fae9fc"/><stop offset=".669" stop-color="#fae9fc"/><stop offset=".812" stop-color="#f8defa"/><stop offset=".91" stop-color="#f6d4f8"/><stop offset="1" stop-color="#f6d4f8"/></radialGradient><path clip-path="url(#x)" fill="url(#y)" d="M7.2 14.6H13v6.7H7.2z"/><defs><path id="z" d="M.5.5h25v25H.5z"/></defs><clipPath id="A"><use xlink:href="#z" overflow="visible"/></clipPath><g clip-path="url(#A)"><defs><path id="B" d="M15.4 10l1.5 4.6 4.4-3.2c.2-.2.5-.3.7-.5l.2-.2c0-.1.1-.1.1-.2v-.2s0-.1-.1-.1c0 0-.1-.1-.2-.1h-1.2l-5.4-.1z"/></defs><clipPath id="C"><use xlink:href="#B" overflow="visible"/></clipPath><radialGradient id="D" cx="-1485.843" cy="1212.611" r=".026" gradientTransform="matrix(692.4182 0 0 692.4181 1028844.938 -839607)" gradientUnits="userSpaceOnUse"><stop offset="0" stop-color="#fae9fb"/><stop offset=".68" stop-color="#fae9fb"/><stop offset=".813" stop-color="#f8def8"/><stop offset=".98" stop-color="#f5caf2"/><stop offset="1" stop-color="#f5caf2"/></radialGradient><path clip-path="url(#C)" fill="url(#D)" d="M15.4 10h6.9v4.6h-6.9z"/><defs><path id="E" d="M.5.5h25v25H.5z"/></defs><clipPath id="F"><use xlink:href="#E" overflow="visible"/></clipPath><path clip-path="url(#F)" fill="#fff" d="M10.6 10l-1.5 4.6 1.4 1 2.5 1.8 3.9-2.8-1.5-4.6z"/></g><path d="M35.2 7.8V2.7h-3v5.1h-.9V1.9h4.8v5.9h-.9zm2.3-2.3c0-1.4.8-2.3 2.1-2.3s2.1.9 2.1 2.3-.8 2.3-2.1 2.3c-1.3.1-2.1-.8-2.1-2.3zm3.3 0c0-1-.4-1.5-1.2-1.5-.8 0-1.2.6-1.2 1.5 0 1 .4 1.5 1.2 1.5.8.1 1.2-.5 1.2-1.5zm3.1.3v2H43V3.3h.9v1.8h.2l1.6-1.8h1l-1.9 2.1 2 2.4h-1.1l-1.6-2h-.2zm3.9 3.6v-.8h.3c.4 0 .7-.2.8-.6l.1-.2-1.6-4.5h1l1.1 3.6h.1l1.1-3.6h.9L49.9 8c-.4 1.1-.8 1.4-1.7 1.4h-.4zm7.8-5.3h-2v3.7h-.9V3.3h3.8v4.5h-.9V4.1zm2.1 2.4c0-.8.6-1.3 1.7-1.3l1.2-.1v-.4c0-.5-.3-.7-.9-.7-.5 0-.8.2-.9.5h-.9c.1-.8.8-1.3 1.8-1.3 1.1 0 1.8.6 1.8 1.5v3.1h-.8v-.6h-.1c-.3.4-.8.7-1.3.7-1 0-1.6-.6-1.6-1.4zm2.9-.4v-.3l-1.1.1c-.6 0-.9.3-.9.6 0 .4.3.6.8.6.7 0 1.2-.4 1.2-1zm2.3 1.7V3.3h.9v3.1h.1L66 3.3h.9v4.5H66V4.7h-.1l-2.1 3.1h-.9zm1.2-6.5c0 .4.3.8.7.8.5 0 .7-.4.7-.8h.7c0 .8-.6 1.4-1.5 1.4s-1.5-.6-1.5-1.4h.9zm7.5 2.8h-1.4v3.7h-.9V4.1h-1.4v-.8h3.7v.8zm4.7 2.5c-.2.8-.9 1.3-1.9 1.3-1.3 0-2.1-.9-2.1-2.3s.8-2.3 2.1-2.3c1.2 0 2 .9 2 2.3v.3h-3.2c0 .8.5 1.3 1.2 1.3.5 0 .9-.2 1.1-.5h.8zm-3.1-1.5h2.3c0-.7-.4-1.2-1.1-1.2s-1.1.5-1.2 1.2zm6.9-1.8h2c.9 0 1.4.4 1.4 1.1 0 .5-.3.9-.8.9v.1c.6.1 1 .5 1 1 0 .8-.6 1.3-1.6 1.3h-2V3.3zm.9.7v1.2h.9c.5 0 .8-.2.8-.6 0-.3-.2-.6-.7-.6h-1zm0 1.8v1.3h1c.5 0 .8-.2.8-.7 0-.4-.3-.7-.9-.7l-.9.1z" fill="#fff"/></g></g></g></g></g></svg>