<svg id="type" xmlns="http://www.w3.org/2000/svg" viewBox="0 0 83.74 25.16"><defs><style>.cls-1{fill:none}.cls-2{clip-path:url(#clip-path)}.cls-15{fill:#fff}</style><clipPath id="clip-path"><path class="cls-1" d="M0 0h25.16v25.16H0z"/></clipPath><clipPath id="clip-path-2"><path class="cls-1" d="M7.72 0H6.21a11.37 11.37 0 0 0-1.65.16A5.37 5.37 0 0 0 3 .68 5.23 5.23 0 0 0 .68 3a5.37 5.37 0 0 0-.52 1.56A11.37 11.37 0 0 0 0 6.21v12.74a11.37 11.37 0 0 0 .16 1.65 5.53 5.53 0 0 0 .52 1.58 5.28 5.28 0 0 0 1 1.33 5 5 0 0 0 1.34 1 6 6 0 0 0 1.54.49 11.36 11.36 0 0 0 1.65.14H19a11.5 11.5 0 0 0 1.61-.14 5.91 5.91 0 0 0 1.57-.52 5.54 5.54 0 0 0 1.33-1 5.31 5.31 0 0 0 1-1.34 6.29 6.29 0 0 0 .49-1.53 11.62 11.62 0 0 0 .15-1.61V6.24A11.36 11.36 0 0 0 25 4.56 5.68 5.68 0 0 0 24.49 3a5.2 5.2 0 0 0-1-1.34 5.28 5.28 0 0 0-1.33-1 5.57 5.57 0 0 0-1.55-.5A11.64 11.64 0 0 0 19 0H7.72z"/></clipPath><linearGradient id="Безымянный_градиент" x1="-1480.19" y1="1255.35" x2="-1480.16" y2="1255.35" gradientTransform="rotate(90 -108027.065 1314460.345) scale(961.02)" gradientUnits="userSpaceOnUse"><stop offset="0" stop-color="#ef4db7"/><stop offset="1" stop-color="#c643fd"/></linearGradient><clipPath id="clip-path-4"><path class="cls-1" d="M12.42 3.2a.53.53 0 0 0-.13.13 1.38 1.38 0 0 0-.14.27c-.1.26-.2.54-.29.81l-1.7 5.2H15l-1.69-5.18c-.09-.27-.18-.55-.29-.81a1.13 1.13 0 0 0-.13-.27.55.55 0 0 0-.14-.13.3.3 0 0 0-.15-.05.33.33 0 0 0-.16.05"/></clipPath><radialGradient id="Безымянный_градиент_2" cx="-1480.43" cy="1258.58" r=".03" gradientTransform="translate(1062691.3 -903422.12) scale(717.83)" gradientUnits="userSpaceOnUse"><stop offset="0" stop-color="#fbe3f8"/><stop offset=".74" stop-color="#fbe3f8"/><stop offset=".81" stop-color="#fadef6"/><stop offset=".88" stop-color="#f9d1f0"/><stop offset=".96" stop-color="#f6bae7"/><stop offset=".98" stop-color="#f5b1e3"/><stop offset="1" stop-color="#f5b1e3"/></radialGradient><clipPath id="clip-path-6"><path class="cls-1" d="M12.58 17.05l4.4 3.2c.23.17.47.33.71.49a1.66 1.66 0 0 0 .27.13.43.43 0 0 0 .19 0 .25.25 0 0 0 .15 0 .4.4 0 0 0 .1-.12.58.58 0 0 0 0-.19 1.54 1.54 0 0 0 0-.3c-.08-.28-.16-.55-.25-.83l-1.68-5.17z"/></clipPath><radialGradient id="Безымянный_градиент_3" cx="-1480.43" cy="1258.58" r=".03" gradientTransform="translate(1062691.3 -903422.12) scale(717.83)" gradientUnits="userSpaceOnUse"><stop offset="0" stop-color="#f9e3fb"/><stop offset=".75" stop-color="#f9e3fb"/><stop offset=".81" stop-color="#f8defb"/><stop offset=".88" stop-color="#f3d0fa"/><stop offset=".96" stop-color="#ecbaf9"/><stop offset=".98" stop-color="#eab2f9"/><stop offset="1" stop-color="#eab2f9"/></radialGradient><clipPath id="clip-path-8"><path class="cls-1" d="M4.72 9.61h-.87a1.47 1.47 0 0 0-.29 0 .46.46 0 0 0-.17.09.38.38 0 0 0-.09.13.29.29 0 0 0 0 .16.44.44 0 0 0 .08.17 1 1 0 0 0 .21.21l.68.53 4.4 3.2 1.5-4.6z"/></clipPath><radialGradient id="Безымянный_градиент_4" cx="-1480.62" cy="1258.65" r=".03" gradientTransform="matrix(979 0 0 979 1449508.25 -1232210.47)" gradientUnits="userSpaceOnUse"><stop offset="0" stop-color="#fae1f8"/><stop offset=".6" stop-color="#fae1f8"/><stop offset=".85" stop-color="#f7d6f7"/><stop offset="1" stop-color="#f7d6f7"/></radialGradient><clipPath id="clip-path-10"><path class="cls-1" d="M7 19.38c-.09.28-.17.55-.24.83a1 1 0 0 0 0 .3.58.58 0 0 0 0 .19.23.23 0 0 0 .1.12.24.24 0 0 0 .14 0 .43.43 0 0 0 .19 0 1.26 1.26 0 0 0 .26-.13c.24-.16.48-.32.71-.49l4.41-3.2-2.49-1.81-1.43-1z"/></clipPath><radialGradient id="Безымянный_градиент_5" cx="-1481.4" cy="1258.13" r=".03" gradientTransform="translate(1032495.61 -876837.91) scale(696.96)" gradientUnits="userSpaceOnUse"><stop offset="0" stop-color="#fae9fc"/><stop offset=".67" stop-color="#fae9fc"/><stop offset=".81" stop-color="#f8defa"/><stop offset=".91" stop-color="#f6d4f8"/><stop offset="1" stop-color="#f6d4f8"/></radialGradient><clipPath id="clip-path-12"><path class="cls-1" d="M15 9.61l1.5 4.6 4.4-3.2.69-.53a1.34 1.34 0 0 0 .2-.21.7.7 0 0 0 .09-.17.29.29 0 0 0 0-.16.22.22 0 0 0-.09-.13.61.61 0 0 0-.16-.09 1.35 1.35 0 0 0-.29 0h-.86z"/></clipPath><radialGradient id="Безымянный_градиент_6" cx="-1481.4" cy="1258.13" r=".03" gradientTransform="translate(1032495.61 -876837.91) scale(696.96)" gradientUnits="userSpaceOnUse"><stop offset="0" stop-color="#fae9fb"/><stop offset=".68" stop-color="#fae9fb"/><stop offset=".81" stop-color="#f8def8"/><stop offset=".98" stop-color="#f5caf2"/><stop offset="1" stop-color="#f5caf2"/></radialGradient></defs><g class="cls-2"><g clip-path="url(#clip-path-2)"><path fill="url(#Безымянный_градиент)" d="M0 0h25.16v25.16H0z"/></g><g class="cls-2"><g clip-path="url(#clip-path-4)"><path fill="url(#Безымянный_градиент_2)" d="M10.16 3.15H15v6.46h-4.84z"/></g><g class="cls-2"><g clip-path="url(#clip-path-6)"><path fill="url(#Безымянный_градиент_3)" d="M12.58 14.21h5.88v6.7h-5.88z"/></g><g class="cls-2"><g clip-path="url(#clip-path-8)"><path fill="url(#Безымянный_градиент_4)" d="M3.25 9.61h6.9v4.6h-6.9z"/></g><g class="cls-2"><g clip-path="url(#clip-path-10)"><path fill="url(#Безымянный_градиент_5)" d="M6.7 14.21h5.88v6.7H6.7z"/></g><g class="cls-2"><g clip-path="url(#clip-path-12)"><path fill="url(#Безымянный_градиент_6)" d="M14.99 9.61h6.91v4.6h-6.91z"/></g><g class="cls-2"><path class="cls-15" d="M10.16 9.61l-1.5 4.6 1.43 1.04 2.49 1.8 3.91-2.84-1.5-4.6h-4.83z"/></g></g><g id="_Группа_" data-name="&lt;Группа&gt;"><g id="_Группа_2" data-name="&lt;Группа&gt;"><path class="cls-15" d="M35 7.34V2.22h-3v5.12h-.93v-6h4.83v6zm2.26-2.26a2.13 2.13 0 1 1 4.25 0 2.13 2.13 0 1 1-4.25 0zm3.34 0c0-1-.44-1.54-1.21-1.54s-1.21.57-1.21 1.54.43 1.55 1.21 1.55 1.21-.57 1.21-1.55zm3.07.29v2h-.89V2.83h.89v1.83h.2l1.62-1.83h1l-1.89 2.1 2 2.41h-1.09l-1.64-2zM47.61 9v-.82a1.37 1.37 0 0 0 .29 0 .78.78 0 0 0 .82-.63l.06-.22-1.63-4.49h1l1.13 3.57h.07l1.12-3.57h1l-1.76 4.68C49.32 8.62 48.9 9 48 9zm7.81-5.42h-2v3.76h-.92V2.83h3.81v4.51h-.88V3.58zm2.13 2.48c0-.81.61-1.28 1.68-1.34l1.22-.07v-.39c0-.48-.32-.74-.92-.74s-.84.18-.94.5h-.86c.09-.78.82-1.27 1.84-1.27s1.76.56 1.76 1.51v3.08h-.85V6.7h-.07a1.52 1.52 0 0 1-1.36.71 1.36 1.36 0 0 1-1.5-1.35zm2.9-.38V5.3l-1.1.07c-.62 0-.9.25-.9.65s.35.64.83.64a1.06 1.06 0 0 0 1.17-.98zm2.35 1.66V2.83h.88v3.1h.07l2.08-3.1h.88v4.51h-.88V4.22h-.07l-2.08 3.12zM64 .8a.74.74 0 1 0 1.47 0h.74a1.48 1.48 0 0 1-3 0zm7.56 2.78h-1.42v3.76h-.89V3.58h-1.41v-.75h3.72zm4.79 2.54a1.83 1.83 0 0 1-1.95 1.3 2 2 0 0 1-2.08-2.32 2.07 2.07 0 0 1 2.07-2.35c1.25 0 2 .85 2 2.27v.31h-3.17a1.19 1.19 0 0 0 1.2 1.29 1.09 1.09 0 0 0 1.07-.55zm-3.13-1.45h2.27a1.09 1.09 0 0 0-1.1-1.17 1.16 1.16 0 0 0-1.17 1.17zm6.9-1.84h2c.88 0 1.39.45 1.39 1.15a1 1 0 0 1-.76.95V5a1 1 0 0 1 1 1c0 .78-.59 1.3-1.58 1.3h-2V2.83zm.88.69v1.16h.88c.53 0 .79-.2.79-.58s-.22-.58-.69-.58zm0 1.82v1.31h1c.53 0 .81-.23.81-.65s-.32-.67-.92-.67H81z" id="_Группа_3" data-name="&lt;Группа&gt;"/></g></g></g></g></g></g></g></svg>