<svg xmlns="http://www.w3.org/2000/svg" viewBox="0 0 44.6 44.2"><path d="M42.9 6.2c-1-2.4-3.1-4.2-5.6-5-1.7-.4-3.4-.6-5.2-.5H12.3c-1.7-.1-3.5.1-5.2.5-2.5.8-4.6 2.6-5.6 5-.7 1.9-.9 4-.8 6.1v19.8c-.1 2.1.2 4.1.8 6 1 2.4 3.1 4.3 5.6 5 1.7.4 3.4.6 5.2.5h19.8c1.7.1 3.5-.1 5.2-.5 2.5-.8 4.6-2.6 5.6-5 .7-1.9.9-4 .8-6.1V12.2c.1-2-.2-4.1-.8-6z" fill="#fff" stroke="#e5e5e5"/><g transform="translate(8 5)"><ellipse cx="13.8" cy="20.5" rx="13.6" ry="13.6" fill="#fc0"/><path d="M20.6 6.7v12.7c0 1.2-.1 2.4-.3 3-.8 2.8-3.4 4.9-6.5 4.9-3.8 0-6.8-3-6.8-6.8s3-6.8 6.8-6.8c1.8 0 3.4.7 4.6 1.8.4.4.7.8 1 1.2-.1-.4-.2-.9-.2-1.3V.1L28 2.8V9l-7.4-2.3z" fill="#f33"/></g></svg>