<svg xmlns="http://www.w3.org/2000/svg" width="138" height="40"><defs><linearGradient id="a" x1="90.94%" x2="-38%" y1="4.56%" y2="71.61%"><stop offset="0%" stop-color="#00A0FF"/><stop offset=".66%" stop-color="#00A1FF"/><stop offset="26.01%" stop-color="#00BEFF"/><stop offset="51.22%" stop-color="#00D2FF"/><stop offset="76.04%" stop-color="#00DFFF"/><stop offset="100%" stop-color="#00E3FF"/></linearGradient><linearGradient id="b" x1="106.89%" x2="-129.53%" y1="50.02%" y2="50.02%"><stop offset="0%" stop-color="#FFE000"/><stop offset="40.87%" stop-color="#FFBD00"/><stop offset="77.54%" stop-color="orange"/><stop offset="100%" stop-color="#FF9C00"/></linearGradient><linearGradient id="c" x1="86.07%" x2="-50.35%" y1="17.82%" y2="194.96%"><stop offset="0%" stop-color="#FF3A44"/><stop offset="100%" stop-color="#C31162"/></linearGradient><linearGradient id="d" x1="-18.41%" x2="42.2%" y1="-54.24%" y2="24.85%"><stop offset="0%" stop-color="#32A071"/><stop offset="6.85%" stop-color="#2DA771"/><stop offset="47.62%" stop-color="#15CF74"/><stop offset="80.09%" stop-color="#06E775"/><stop offset="100%" stop-color="#00F076"/></linearGradient></defs><g fill="none"><path fill="#000" d="M138 36c0 2.17-1.81 4-3.97 4H3.97A4.03 4.03 0 0 1 0 36V4c0-2.17 1.81-4 3.97-4h130.06A4.03 4.03 0 0 1 138 4v32z"/><path fill="#FFF" d="M69.69 21.83a4.33 4.33 0 0 0-4.4 4.43 4.38 4.38 0 0 0 4.4 4.44c2.42 0 4.4-1.92 4.4-4.44 0-2.6-1.98-4.43-4.4-4.43zm0 7.13c-1.3 0-2.5-1.13-2.5-2.7 0-1.56 1.12-2.7 2.5-2.7 1.3 0 2.5 1.14 2.5 2.7-.08 1.57-1.2 2.7-2.5 2.7zm-9.66-7.13a4.33 4.33 0 0 0-4.4 4.43 4.38 4.38 0 0 0 4.4 4.44c2.41 0 4.4-1.92 4.4-4.44 0-2.6-1.99-4.43-4.4-4.43zm0 7.13c-1.3 0-2.5-1.13-2.5-2.7 0-1.56 1.12-2.7 2.5-2.7 1.3 0 2.5 1.14 2.5 2.7 0 1.57-1.2 2.7-2.5 2.7zm-11.47-5.74v1.91h4.48a4.23 4.23 0 0 1-1.03 2.35c-.7.7-1.64 1.39-3.45 1.39a4.95 4.95 0 0 1-4.92-5.04 4.95 4.95 0 0 1 8.28-3.74l1.3-1.3a6.6 6.6 0 0 0-4.66-1.92c-3.8 0-6.9 3.13-6.9 6.87a6.93 6.93 0 0 0 6.9 6.87c2.07 0 3.53-.7 4.74-1.91a6.32 6.32 0 0 0 1.64-4.44c0-.43 0-.87-.09-1.22h-6.3v.18zm46.83 1.39c-.34-.96-1.46-2.78-3.8-2.78-2.23 0-4.13 1.82-4.13 4.43 0 2.52 1.9 4.44 4.4 4.44a4.42 4.42 0 0 0 3.7-2l-1.46-1.05c-.52.7-1.2 1.22-2.16 1.22-.95 0-1.72-.44-2.15-1.3l5.86-2.44-.26-.52zm-5.95 1.48a2.4 2.4 0 0 1 2.33-2.61c.78 0 1.38.35 1.64.95l-3.97 1.66zm-4.83 4.34h1.9V17.4h-1.9v13.04zm-3.1-7.65a3.28 3.28 0 0 0-2.42-.95 4.35 4.35 0 0 0-4.23 4.43 4.35 4.35 0 0 0 4.23 4.44c1.04 0 1.9-.44 2.33-1.05h.09v.61c0 1.65-.87 2.61-2.33 2.61-1.21 0-1.9-.87-2.25-1.57l-1.72.7a4.11 4.11 0 0 0 3.88 2.6c2.24 0 4.23-1.3 4.23-4.6v-7.91H81.5v.7zm-2.25 6.18c-1.29 0-2.41-1.13-2.41-2.7 0-1.56 1.12-2.7 2.41-2.7 1.3 0 2.33 1.14 2.33 2.7 0 1.57-1.03 2.7-2.33 2.7zm25.19-11.57h-4.66v13.04h1.9v-4.95h2.67c2.16 0 4.23-1.57 4.23-4.09 0-2.52-1.98-4-4.14-4zm.08 6.26h-2.75v-4.43h2.75a2.23 2.23 0 0 1 2.25 2.26c0 .95-.78 2.17-2.25 2.17zm11.9-1.82c-1.37 0-2.84.6-3.44 2l1.72.7c.35-.7 1.04-.96 1.73-.96 1.03 0 1.98.6 2.07 1.65v.17a4.6 4.6 0 0 0-1.99-.52c-1.8 0-3.7 1.04-3.7 2.96 0 1.74 1.55 2.87 3.19 2.87a2.9 2.9 0 0 0 2.5-1.3h.08v1.03h1.9v-4.95c-.08-2.35-1.81-3.65-4.05-3.65zm-.17 7.13c-.6 0-1.55-.35-1.55-1.13 0-1.05 1.12-1.4 2.07-1.4.86 0 1.21.18 1.73.44a2.26 2.26 0 0 1-2.25 2.09zm10.96-6.87l-2.24 5.65h-.09l-2.33-5.65h-2.07l3.45 7.91-1.98 4.35h1.98l5.35-12.26h-2.07zm-17.42 8.34h1.9V17.4h-1.9v13.04z"/><path fill="url(#a)" d="M.52.96C.17 1.22 0 1.74 0 2.43v23.05c0 .6.17 1.13.52 1.48l.08.08 12.86-12.87v-.43L.52.96z" transform="translate(9.49 6.09)"/><path fill="url(#b)" d="M17.68 18.35l-4.31-4.26v-.35l4.31-4.26.09.09 5.09 2.86c1.46.87 1.46 2.18 0 3.05l-5.1 2.87h-.08z" transform="translate(9.49 6.09)"/><path fill="url(#c)" d="M17.77 18.35l-4.4-4.44L.52 26.87c.51.52 1.3.6 2.15.09l15.1-8.61" transform="translate(9.49 6.09)"/><path fill="url(#d)" d="M17.77 9.48L2.59.87C1.73.35.95.43.43.96L13.37 13.9l4.4-4.43z" transform="translate(9.49 6.09)"/><g fill="#000"><path d="M27.17 24.26l-15.1 8.6c-.86.53-1.55.44-2.06 0l-.1.1.1.08c.51.44 1.2.44 2.07 0l15.09-8.6v-.18z" opacity=".2"/><path d="M10 32.87a2.32 2.32 0 0 1-.51-1.48v.17c0 .61.17 1.14.52 1.48v-.17z" opacity=".12"/></g><path fill="#000" d="M32.26 21.4l-5.18 2.95.09.08 5.09-2.86c.69-.44 1.12-.96 1.12-1.48-.09.43-.43.87-1.12 1.3z" opacity=".12"/><path fill="#FFF" d="M12.08 7.13L32.26 18.7c.69.34 1.03.87 1.12 1.39 0-.52-.35-1.13-1.12-1.48L12.08 6.96c-1.47-.87-2.6-.18-2.6 1.56v.18c0-1.74 1.22-2.44 2.6-1.57z" opacity=".25"/><path fill="#FFF" stroke="#FFF" stroke-width=".5" d="M42.78 14H42v-2.09h.6c.53-.43.78-1.3.78-2.43V6.43h4.14v5.48h.7V14h-.78v-1.3h-4.75V14h.09zm1.38-4.43c0 .95-.17 1.82-.6 2.43h3.1V7.22h-2.59v2.35h.09zm10.26 2.34a3.12 3.12 0 0 1-4.48 0 3.37 3.37 0 0 1 0-4.7 3.12 3.12 0 0 1 4.48 0c.6.62.95 1.4.95 2.36a3.2 3.2 0 0 1-.95 2.34zm-3.96-.52c.43.44 1.03.7 1.72.7.7 0 1.2-.26 1.73-.7a2.5 2.5 0 0 0 .69-1.82c0-.7-.26-1.3-.7-1.83a2.4 2.4 0 0 0-1.72-.7c-.69 0-1.2.26-1.72.7a2.5 2.5 0 0 0-.7 1.83c0 .78.27 1.3.7 1.82zm8.88 1.48c-.95 0-1.64-.35-2.33-.96-.6-.6-.95-1.39-.95-2.34a3.24 3.24 0 0 1 3.28-3.31c.95 0 1.72.35 2.24 1.04l-.51.53a2.16 2.16 0 0 0-1.73-.79c-.69 0-1.2.26-1.73.7a2.82 2.82 0 0 0-.68 1.83c0 .78.25 1.3.69 1.82.43.44 1.03.7 1.72.7.78 0 1.38-.26 1.9-.87l.51.52c-.25.35-.6.6-1.03.78-.43.26-.86.35-1.38.35zm5.69-.17h-.77V7.22h-1.73v-.79h4.23v.79h-1.73zm7.25-6.27l-2.33 5.3c-.35.8-.78 1.14-1.47 1.14a1.7 1.7 0 0 1-.6-.17l.17-.79c.17.09.26.09.43.09.17 0 .35 0 .43-.09a.8.8 0 0 0 .26-.43l.26-.52-2.16-4.53h.95L69.78 10l1.46-3.57h1.04zm.86 6.27V6.44h4.49v6.26h-.78V7.22h-2.93v5.48h-.78zm5.96 0V6.44h.77v2.69h3.1v-2.7h.78v6.27h-.78V9.9h-3.1v2.79h-.78zm11.2-.79a3.12 3.12 0 0 1-4.48 0 3.37 3.37 0 0 1 0-4.7 3.12 3.12 0 0 1 4.48 0c.6.62.95 1.4.95 2.36a3.61 3.61 0 0 1-.95 2.34zm-3.96-.52c.43.44 1.03.7 1.72.7.7 0 1.2-.26 1.73-.7a2.5 2.5 0 0 0 .69-1.82c0-.7-.26-1.3-.7-1.83a2.4 2.4 0 0 0-1.72-.7c-.69 0-1.2.26-1.72.7a2.5 2.5 0 0 0-.7 1.83c0 .78.18 1.3.7 1.82zm8.1 1.3V6.44h2.25c.51 0 .95.18 1.29.53.34.34.52.7.52 1.21 0 .26-.09.53-.26.79s-.35.43-.6.52c.34.09.51.26.77.52.17.26.26.52.26.87a1.78 1.78 0 0 1-1.81 1.83h-2.42zm.78-3.56h1.47a1 1 0 0 0 .69-.26 1 1 0 0 0 .26-.7c0-.26-.1-.43-.26-.7a.97.97 0 0 0-.7-.25h-1.46v1.91zm0 2.78h1.64c.34 0 .52-.08.77-.34a1 1 0 0 0 .26-.7 1 1 0 0 0-.26-.7 1.09 1.09 0 0 0-.77-.34H95.3v2.08h-.09z"/></g></svg>