<svg xmlns="http://www.w3.org/2000/svg" xmlns:xlink="http://www.w3.org/1999/xlink" width="456" height="126"><defs><path id="a" d="M0 125.82h456V0H0z"/></defs><g fill="none" fill-rule="evenodd"><mask id="b" fill="#fff"><use xlink:href="#a"/></mask><path d="M453.075 110.307c0 7.017-5.384 12.756-11.968 12.756H14.893c-6.584 0-11.968-5.739-11.968-12.756V15.693c0-7.017 5.384-12.756 11.968-12.756h426.214c6.584 0 11.968 5.739 11.968 12.756v94.614" fill="#000105" mask="url(#b)"/><path d="M441.107 0H14.893C6.741 0 0 7.005 0 15.693v94.614C0 118.995 6.741 126 14.893 126h426.214c8.152 0 14.893-7.005 14.893-15.693V15.693C456 7.005 449.259 0 441.107 0zm0 3c6.584 0 12.078 5.676 12.078 12.693v94.614c0 7.017-5.494 12.693-12.078 12.693H14.893c-6.584 0-12.078-5.676-12.078-12.693V15.693C2.815 8.676 8.309 3 14.893 3h427.033-.82z" fill="#ABADA9" mask="url(#b)"/><path d="M282.857 66.907c-.715-2.627-1.285-4.899-1.715-7.24h-.212c.142 2.413.212 4.969.212 7.525v35.566H278V52h4.142l8.643 32.442c.356 1.35.857 3.976 1.07 5.893h.215c.286-1.917.859-4.616 1.215-5.893L301.997 52H306v50.758h-3.43V67.192c0-2.413.144-4.97.286-7.524h-.286c-.642 2.838-1.143 4.896-1.715 7.026l-7.64 28.256h-2.788l-7.57-28.043zm136.171 17.525c.096 5.04.792 8.88 2.088 11.52 1.296 2.64 3.288 3.96 5.976 3.96 1.2 0 2.256-.192 3.168-.576.912-.384 1.68-.84 2.304-1.368a6.962 6.962 0 0 0 1.8-1.944l1.08 2.664a9.268 9.268 0 0 1-2.088 2.016c-.672.528-1.548.996-2.628 1.404-1.08.408-2.316.612-3.708.612-3.84 0-6.66-1.644-8.46-4.932-1.8-3.288-2.7-7.932-2.7-13.932 0-2.976.264-5.628.792-7.956.528-2.328 1.26-4.308 2.196-5.94.936-1.632 2.04-2.868 3.312-3.708a7.483 7.483 0 0 1 4.212-1.26c1.536 0 2.928.408 4.176 1.224 1.248.816 2.28 2.04 3.096 3.672.816 1.632 1.392 3.66 1.728 6.084.336 2.424.36 5.244.072 8.46h-16.416zm7.344-16.776c-1.92 0-3.576 1.212-4.968 3.636-1.392 2.424-2.16 5.964-2.304 10.62h13.32c.144-2.448.096-4.572-.144-6.372-.24-1.8-.648-3.288-1.224-4.464-.576-1.176-1.272-2.04-2.088-2.592-.816-.552-1.68-.828-2.592-.828zM123.766 52.344c-2.027 0-3.958.334-5.792 1.001a13.421 13.421 0 0 0-4.815 3.002c-1.376 1.335-2.462 3.015-3.259 5.04-.796 2.026-1.194 4.373-1.194 7.042 0 3.813.7 6.827 2.1 9.043 1.4 2.216 3.234 3.896 5.502 5.04l-9.702 20.946h6.444l8.833-19.588h4.634v19.588h5.576V52.344h-8.327zM120.11 77.76a6.629 6.629 0 0 1-2.824-1.823c-.797-.858-1.424-1.978-1.883-3.36-.458-1.382-.688-3.098-.688-5.147 0-2.145.254-3.944.76-5.397.507-1.454 1.171-2.622 1.992-3.503.82-.882 1.762-1.525 2.824-1.93a9.071 9.071 0 0 1 3.258-.608h2.968v22.304h-2.968c-1.207 0-2.353-.179-3.44-.536zm221.197-10.94c-1.327.739-2.401 1.632-3.222 2.681l.87 3.217a12.641 12.641 0 0 1 3.004-2.86c1.183-.81 2.619-1.215 4.308-1.215 1.786 0 3.15.548 4.09 1.644.942 1.096 1.413 2.55 1.413 4.361 0 2.478-.664 4.337-1.991 5.576-1.328 1.24-3.053 1.859-5.177 1.859h-2.68V84.8h3.042c2.751 0 4.718.691 5.9 2.073 1.183 1.383 1.775 3.217 1.775 5.505 0 2.621-.664 4.587-1.991 5.898-1.328 1.31-2.933 1.966-4.815 1.966-1.255 0-2.341-.191-3.259-.572-.917-.382-1.69-.834-2.317-1.359a8.011 8.011 0 0 1-1.882-1.93l-1.159 2.788a8.703 8.703 0 0 0 2.173 2.002c.724.524 1.617.989 2.679 1.394 1.061.405 2.34.608 3.837.608 1.4 0 2.715-.239 3.946-.715a9.443 9.443 0 0 0 3.258-2.11c.942-.928 1.678-2.06 2.209-3.395.53-1.334.796-2.883.796-4.646 0-2.002-.507-3.813-1.52-5.434-1.014-1.62-2.68-2.835-4.996-3.645 2.027-.954 3.439-2.193 4.235-3.718a10.494 10.494 0 0 0 1.195-4.932c0-2.67-.736-4.814-2.208-6.434-1.473-1.62-3.657-2.43-6.553-2.43-1.979 0-3.632.368-4.96 1.107zm-93.547.43c-1.617.88-2.969 2.12-4.055 3.716-1.086 1.597-1.907 3.54-2.462 5.827-.555 2.287-.832 4.837-.832 7.649 0 6.196 1.11 10.83 3.33 13.904 2.22 3.074 5.286 4.611 9.196 4.611 1.69 0 3.137-.25 4.344-.75a12.451 12.451 0 0 0 3.258-1.966l-1.303-4.147c-.676.572-1.52 1.085-2.534 1.537-1.014.453-2.22.68-3.62.68-2.317 0-4.019-1.228-5.105-3.682-1.086-2.455-1.63-5.946-1.63-10.473 0-4.575.653-7.983 1.956-10.223 1.303-2.24 2.968-3.36 4.996-3.36a7.49 7.49 0 0 1 3.294.75c1.038.501 1.943 1.085 2.715 1.752l.797-5.29a13.312 13.312 0 0 0-2.751-1.322c-1.014-.358-2.342-.536-3.983-.536-2.124 0-3.994.44-5.611 1.322zm-50.358.178c-1.4 1-2.546 2.395-3.44 4.182-.892 1.787-1.544 3.896-1.954 6.327-.41 2.43-.616 5.099-.616 8.006 0 5.576 1.087 9.806 3.259 12.69 2.172 2.882 5.14 4.324 8.905 4.324 1.835 0 3.5-.262 4.996-.786 1.497-.524 2.824-1.24 3.983-2.145l-1.304-4.29c-.724.525-1.701 1.061-2.932 1.61-1.23.547-2.643.821-4.236.821-2.268 0-3.97-1.048-5.104-3.145-1.135-2.097-1.702-5.194-1.702-9.293h15.205v-3.074c0-3.05-.241-5.636-.724-7.757-.482-2.12-1.158-3.848-2.027-5.183-.869-1.334-1.93-2.3-3.186-2.895-1.255-.596-2.63-.893-4.127-.893-1.93 0-3.596.5-4.996 1.5zm1.303 5.97c.724-1.931 1.955-2.896 3.693-2.896.82 0 1.508.262 2.064.786.555.524.99 1.263 1.303 2.216.314.953.543 2.085.688 3.396.145 1.31.217 2.728.217 4.253h-9.34c.193-3.24.651-5.826 1.375-7.756zm211.93-6.971L398.4 83.371V66.428h-3.403v36.03h3.403V83.799l12.67 18.659h3.766l-12.888-19.302 12.019-16.728h-3.33zm-27.079 36.03h3.33v-36.03h-3.33v36.03zm-21.432-36.03v36.03h5.865c3.427 0 6.226-.953 8.399-2.86 2.172-1.906 3.258-4.766 3.258-8.578 0-3.765-1.038-6.577-3.114-8.436-2.075-1.858-4.85-2.788-8.326-2.788h-2.679V66.428h-3.403zm3.403 16.013h2.534c2.607 0 4.634.68 6.082 2.038 1.448 1.358 2.173 3.562 2.173 6.612 0 3.098-.797 5.326-2.39 6.684-1.593 1.359-3.669 2.038-6.227 2.038h-2.172V82.44zm-34.175-16.013l-5.648 23.52a119.986 119.986 0 0 0-.941 4.003 90.87 90.87 0 0 0-.797 4.146h-.217a102.85 102.85 0 0 0-.652-4.075 68.5 68.5 0 0 0-.868-4.075l-5.793-23.519h-3.403l9.05 37.03-.289 1.073c-.53 2.002-1.23 3.562-2.1 4.682-.869 1.12-1.93 1.68-3.185 1.68-.483 0-.906-.024-1.268-.071a5.379 5.379 0 0 1-.977-.215l.362 3.146a7.3 7.3 0 0 0 .833.107c.313.024.663.036 1.05.036 1.303 0 2.413-.274 3.33-.822a8.467 8.467 0 0 0 2.39-2.145 12.777 12.777 0 0 0 1.701-3.038 24.65 24.65 0 0 0 1.122-3.575l9.34-37.888h-3.04zm-98.689 0l-8.76 16.657V66.428h-5.648v36.03h5.647V84.514l9.63 17.944h6.155L229.333 83.37l9.05-16.943h-5.72zm-64.513 0v3.074c0 2.383-.036 4.85-.108 7.399a94.808 94.808 0 0 1-.507 7.506 73.758 73.758 0 0 1-1.122 7.149c-.483 2.311-1.135 4.42-1.955 6.327h-2.245v11.652h5.069v-7.077h15.639v7.077h5.068V97.883h-2.896V66.428H168.15zm3.476 25.2a80.493 80.493 0 0 0 1.014-6.9c.24-2.334.398-4.634.47-6.898.073-2.263.109-4.349.109-6.255v-.643h6.299v26.95h-9.702c.772-1.906 1.375-3.99 1.81-6.255zm-18.246-25.2v15.298h-8.4V66.428h-5.647v36.03h5.648V86.302h8.399v16.156h5.575v-36.03h-5.575zM121.005 23.19h-10.17V42h-2.76V21.15h15.69V42h-2.76V23.19zm13.68 19.11a7.48 7.48 0 0 1-2.79-.525c-.88-.35-1.65-.86-2.31-1.53-.66-.67-1.185-1.49-1.575-2.46-.39-.97-.585-2.085-.585-3.345 0-1.26.195-2.375.585-3.345.39-.97.915-1.785 1.575-2.445a6.767 6.767 0 0 1 2.31-1.515 7.48 7.48 0 0 1 2.79-.525c.98 0 1.915.175 2.805.525.89.35 1.67.855 2.34 1.515.67.66 1.205 1.475 1.605 2.445.4.97.6 2.085.6 3.345 0 1.26-.2 2.375-.6 3.345-.4.97-.935 1.79-1.605 2.46-.67.67-1.45 1.18-2.34 1.53-.89.35-1.825.525-2.805.525zm0-1.89c.6 0 1.185-.105 1.755-.315a3.842 3.842 0 0 0 1.515-1.035c.44-.48.795-1.1 1.065-1.86.27-.76.405-1.68.405-2.76 0-1.08-.135-1.995-.405-2.745s-.625-1.365-1.065-1.845a3.842 3.842 0 0 0-1.515-1.035 5.039 5.039 0 0 0-1.755-.315c-.6 0-1.175.105-1.725.315a3.89 3.89 0 0 0-1.485 1.035c-.44.48-.79 1.095-1.05 1.845s-.39 1.665-.39 2.745.13 2 .39 2.76c.26.76.61 1.38 1.05 1.86.44.48.935.825 1.485 1.035.55.21 1.125.315 1.725.315zm17.28 1.89a8.078 8.078 0 0 1-2.925-.525c-.91-.35-1.7-.865-2.37-1.545-.67-.68-1.2-1.505-1.59-2.475-.39-.97-.585-2.075-.585-3.315 0-1.22.195-2.315.585-3.285.39-.97.93-1.795 1.62-2.475a6.836 6.836 0 0 1 2.445-1.545c.94-.35 1.95-.525 3.03-.525.9 0 1.71.09 2.43.27.72.18 1.32.43 1.8.75l-.75 2.28a8.522 8.522 0 0 0-1.695-.975c-.55-.23-1.205-.345-1.965-.345-.66 0-1.29.125-1.89.375-.6.25-1.12.62-1.56 1.11-.44.49-.79 1.1-1.05 1.83s-.39 1.575-.39 2.535c0 1.96.47 3.42 1.41 4.38s2.22 1.44 3.84 1.44c.54 0 1.125-.1 1.755-.3.63-.2 1.205-.49 1.725-.87l.57 1.89c-.52.4-1.155.72-1.905.96s-1.595.36-2.535.36zm10.92-4.29c-.3 1.24-.81 2.23-1.53 2.97-.72.74-1.76 1.09-3.12 1.05l-.33-2.1c.7.04 1.295-.175 1.785-.645.49-.47.835-1.125 1.035-1.965.16-.66.285-1.34.375-2.04.09-.7.165-1.455.225-2.265s.105-1.715.135-2.715c.03-1 .055-2.13.075-3.39h9.69V42h-2.58l-.06-13.29h-4.83c-.02.96-.045 1.855-.075 2.685-.03.83-.075 1.62-.135 2.37-.06.75-.145 1.47-.255 2.16-.11.69-.245 1.385-.405 2.085zm13.95 9.87a6.523 6.523 0 0 1-2.22-.36l.33-2.07c.24.1.51.19.81.27.3.08.62.12.96.12.56 0 1.07-.18 1.53-.54.46-.36.96-1 1.5-1.92l-5.97-16.47h2.76l4.59 13.17 4.59-13.17h2.31l-5.34 14.91c-.36.98-.73 1.845-1.11 2.595-.38.75-.8 1.38-1.26 1.89-.46.51-.975.9-1.545 1.17-.57.27-1.215.405-1.935.405zm13.74-20.97h2.55V40.2h5.58V26.91h2.58V40.2h5.58V26.91h2.55V42h-18.84V26.91zm27.57 13.53c1.06 0 1.905-.265 2.535-.795.63-.53 1.095-1.135 1.395-1.815v-2.85h-1.32c-1.94 0-3.335.205-4.185.615-.85.41-1.275 1.195-1.275 2.355 0 .82.285 1.44.855 1.86.57.42 1.235.63 1.995.63zm4.41 1.56c-.08-.28-.15-.61-.21-.99s-.11-.79-.15-1.23c-.18.3-.395.6-.645.9-.25.3-.555.57-.915.81a4.8 4.8 0 0 1-1.29.585c-.5.15-1.08.225-1.74.225-.66 0-1.28-.09-1.86-.27a4.656 4.656 0 0 1-1.545-.81c-.45-.36-.805-.8-1.065-1.32-.26-.52-.39-1.12-.39-1.8 0-1.64.655-2.835 1.965-3.585s3.245-1.125 5.805-1.125h1.56v-1.23c0-1.22-.26-2.13-.78-2.73-.52-.6-1.44-.9-2.76-.9-.9 0-1.715.165-2.445.495-.73.33-1.375.725-1.935 1.185l-.69-2.1c.24-.18.55-.36.93-.54.38-.18.81-.34 1.29-.48.48-.14.99-.255 1.53-.345.54-.09 1.09-.135 1.65-.135 1.9 0 3.335.415 4.305 1.245.97.83 1.455 2.145 1.455 3.945v7.77c0 .34.02.765.06 1.275.04.51.09.895.15 1.155h-2.28zm12.93-16.62c-.72 0-1.35-.095-1.89-.285-.54-.19-.99-.445-1.35-.765a2.934 2.934 0 0 1-.795-1.125 3.76 3.76 0 0 1-.255-1.395h2.46c0 .7.155 1.21.465 1.53.31.32.765.48 1.365.48.58 0 1.025-.16 1.335-.48.31-.32.465-.83.465-1.53h2.46c0 1-.35 1.845-1.05 2.535-.7.69-1.77 1.035-3.21 1.035zm-6.75 1.53h2.55v11.67l8.31-11.67h2.34V42h-2.55V30.3l-8.28 11.7h-2.37V26.91zm23.4 1.8V42h-2.58V28.71h-4.59v-1.8h11.85v1.8h-4.68zm13.74-.27c-1.08 0-2.005.38-2.775 1.14-.77.76-1.255 1.91-1.455 3.45h7.65c.12-1.56-.145-2.715-.795-3.465s-1.525-1.125-2.625-1.125zm5.55 12.27c-.54.46-1.24.84-2.1 1.14-.86.3-1.84.45-2.94.45-2.4 0-4.24-.685-5.52-2.055-1.28-1.37-1.92-3.305-1.92-5.805 0-1.22.18-2.315.54-3.285.36-.97.855-1.795 1.485-2.475a6.224 6.224 0 0 1 2.22-1.545 7.138 7.138 0 0 1 2.745-.525c1.02 0 1.935.175 2.745.525.81.35 1.48.87 2.01 1.56.53.69.89 1.55 1.08 2.58.19 1.03.185 2.215-.015 3.555h-10.2c.12 3.62 1.81 5.43 5.07 5.43.86 0 1.63-.13 2.31-.39.68-.26 1.31-.59 1.89-.99l.6 1.83zm20.19-5.61h-7.32V42h-2.55V26.91h2.55v6.39h7.32v-6.39h2.55V42h-2.55v-6.9zm11.28 5.34c1.06 0 1.905-.265 2.535-.795.63-.53 1.095-1.135 1.395-1.815v-2.85h-1.32c-1.94 0-3.335.205-4.185.615-.85.41-1.275 1.195-1.275 2.355 0 .82.285 1.44.855 1.86.57.42 1.235.63 1.995.63zm4.41 1.56c-.08-.28-.15-.61-.21-.99s-.11-.79-.15-1.23c-.18.3-.395.6-.645.9-.25.3-.555.57-.915.81a4.8 4.8 0 0 1-1.29.585c-.5.15-1.08.225-1.74.225-.66 0-1.28-.09-1.86-.27a4.656 4.656 0 0 1-1.545-.81c-.45-.36-.805-.8-1.065-1.32-.26-.52-.39-1.12-.39-1.8 0-1.64.655-2.835 1.965-3.585s3.245-1.125 5.805-1.125h1.56v-1.23c0-1.22-.26-2.13-.78-2.73-.52-.6-1.44-.9-2.76-.9-.9 0-1.715.165-2.445.495-.73.33-1.375.725-1.935 1.185l-.69-2.1c.24-.18.55-.36.93-.54.38-.18.81-.34 1.29-.48.48-.14.99-.255 1.53-.345.54-.09 1.09-.135 1.65-.135 1.9 0 3.335.415 4.305 1.245.97.83 1.455 2.145 1.455 3.945v7.77c0 .34.02.765.06 1.275.04.51.09.895.15 1.155h-2.28z" fill="#FFF"/><path d="M84 77c0 17.672-14.327 32-32 32-17.673 0-32-14.328-32-32 0-17.673 14.327-32 32-32 17.673 0 32 14.327 32 32" fill="#FFCC02"/><path d="M68 77c0 8.836-7.164 16-16 16s-16-7.164-16-16 7.164-16 16-16c2.914 0 5.647.78 8 2.14V21l24 8v16l-16-5.333V77z" fill="#E00"/></g></svg>